# xmcd
#
# Track frame offsets: 
#        150
#        13900
#        22382
#        33680
#        62195
#        72898
#        83803
#        99222
#        110108
#        124814
#        137044
#        148154
#        158599
#        163224
#        186156
#        197155
#        224595
#        232827
#        241066
#        255633
#
# Disc length: 3573 seconds
#
# Revision: 3
# Processed by: cddbd v1.5.2PL0 Copyright (c) Steve Scherf et al.
# Submitted via: ExactAudioCopyFreeDBPlugin 1.0
#
DISCID=2a0df314
DTITLE=Fats Domino - 1996 - Blueberry Hill - The Greatest Hits
DYEAR=1996
DGENRE=Blues
TTITLE0=Blueberry Hill
TTITLE1=I'm Ready
TTITLE2=Ain't That A Shame
TTITLE3=So Long - C. C. Rider
TTITLE4=Hello Josephine
TTITLE5=Blue Monday
TTITLE6=Jambalaya
TTITLE7=Oh What A Price
TTITLE8=I'm In The Mood For Love
TTITLE9=Let The Four Winds Blow
TTITLE10=I Want To Walk You Home
TTITLE11=I'm Gonna Be A Wheel Someday
TTITLE12=Whole Lotta Loving
TTITLE13=Domino Twist
TTITLE14=The Fat Man
TTITLE15=Please Don't Leave Me
TTITLE16=Red Sails In The Sunset
TTITLE17=Be My Guest
TTITLE18=I'm In Love Again
TTITLE19=Goin' Home
EXTD=YEAR: 1996
EXTT0=
EXTT1=
EXTT2=
EXTT3=
EXTT4=
EXTT5=
EXTT6=
EXTT7=
EXTT8=
EXTT9=
EXTT10=
EXTT11=
EXTT12=
EXTT13=
EXTT14=
EXTT15=
EXTT16=
EXTT17=
EXTT18=
EXTT19=
PLAYORDER=
